<svg width="11" height="20" viewBox="0 0 11 20" fill="none" xmlns="http://www.w3.org/2000/svg">
<path fill-rule="evenodd" clip-rule="evenodd" d="M0.349229 10.652H2.54153V19.6774C2.54153 19.8556 2.68591 20 2.86411 20H6.58126C6.75946 20 6.90384 19.8556 6.90384 19.6774V10.6945H9.42411C9.58798 10.6945 9.72587 10.5716 9.74458 10.4088L10.1274 7.08609C10.1379 6.99469 10.1089 6.90313 10.0477 6.83453C9.98653 6.7659 9.89892 6.7266 9.80696 6.7266H6.90399V4.64375C6.90399 4.0159 7.24204 3.6975 7.90892 3.6975C8.00396 3.6975 9.80696 3.6975 9.80696 3.6975C9.98517 3.6975 10.1295 3.55305 10.1295 3.37492V0.324961C10.1295 0.146758 9.98517 0.00238281 9.80696 0.00238281H7.19114C7.17271 0.00148438 7.13173 0 7.07134 0C6.61747 0 5.03985 0.0891016 3.79364 1.23555C2.41286 2.50602 2.60481 4.02715 2.65067 4.2909V6.72652H0.349189C0.170986 6.72652 0.0266113 6.8709 0.0266113 7.0491V10.3294C0.0266504 10.5075 0.171025 10.652 0.349229 10.652Z" fill="#C2C2C2"/>
</svg>
