<svg width="20" height="20" viewBox="0 0 20 20" fill="none" xmlns="http://www.w3.org/2000/svg">
<path fill-rule="evenodd" clip-rule="evenodd" d="M1.80916 0H18.1908C19.19 0 20 0.81 20 1.80916V18.1908C20 19.19 19.19 20 18.1908 20H1.80916C0.81 20 0 19.19 0 18.1908V1.80916C0 0.81 0.81 0 1.80916 0ZM5.66236 17.7958C5.95314 17.7958 6.18885 17.5601 6.18885 17.2693V7.8745C6.18885 7.58372 5.95314 7.34801 5.66236 7.34801H3.4212C3.13042 7.34801 2.89471 7.58372 2.89471 7.8745V17.2693C2.89471 17.5601 3.13042 17.7958 3.4212 17.7958H5.66236ZM4.54178 6.46241C3.36592 6.46241 2.41267 5.50916 2.41267 4.3333C2.41267 3.15743 3.36592 2.20419 4.54178 2.20419C5.71764 2.20419 6.67089 3.15743 6.67089 4.3333C6.67089 5.50916 5.7177 6.46241 4.54178 6.46241ZM17.417 17.7958C17.6843 17.7958 17.901 17.5791 17.901 17.3117V12.7648V12.7313C17.9012 10.7476 17.9014 7.19037 14.0722 7.19037C12.3332 7.19037 11.5164 7.82696 10.9669 8.65173V7.83209C10.9669 7.56476 10.7501 7.34801 10.4828 7.34801H8.15681C7.88948 7.34801 7.67272 7.56476 7.67272 7.83209V17.3117C7.67272 17.5791 7.88948 17.7958 8.15681 17.7958H10.4828C10.7502 17.7958 10.9669 17.5791 10.9669 17.3117V12.2291C11.0272 11.5461 11.3279 10.0243 12.81 10.0243C14.58 10.0243 14.545 11.9321 14.5302 12.7358C14.529 12.7997 14.528 12.8566 14.528 12.905V17.3117C14.528 17.5791 14.7447 17.7958 15.012 17.7958H17.417Z" fill="#C2C2C2"/>
</svg>
